<?xml version="1.0" standalone="no"?>
<!DOCTYPE svg PUBLIC "-//W3C//DTD SVG 1.1//EN" "http://www.w3.org/Graphics/SVG/1.1/DTD/svg11.dtd">
<svg xmlns="http://www.w3.org/2000/svg">
<metadata>Copyright (C) 2023 by original authors @ fontello.com</metadata>
<defs>
<font id="fontello" horiz-adv-x="1000" >
<font-face font-family="fontello" font-weight="400" font-stretch="normal" units-per-em="1000" ascent="990" descent="-10" />
<missing-glyph horiz-adv-x="1000" />
<glyph glyph-name="pencil" unicode="&#xe800;" d="M0-3l68 343 274-273z m137 392l422 422 259-260-421-422z m531 494q2 39 31 69t69 31 66-25l131-131q25-26 24-66t-30-69-69-30-66 24l-131 131q-27 27-25 66z" horiz-adv-x="989" />

<glyph glyph-name="logout" unicode="&#xe801;" d="M357 186q0-2 1-11t0-14-2-14-5-10-12-4h-178q-67 0-114 47t-47 114v392q0 67 47 114t114 47h178q8 0 13-5t5-13q0-2 1-11t0-15-2-13-5-11-12-3h-178q-37 0-63-26t-27-64v-392q0-37 27-63t63-27h174t6 0 7-2 4-3 4-5 1-8z m518 304q0-14-11-25l-303-304q-11-10-25-10t-25 10-11 25v161h-250q-14 0-25 11t-11 25v214q0 15 11 25t25 11h250v161q0 14 11 25t25 10 25-10l303-304q11-10 11-25z" horiz-adv-x="928.6" />

<glyph glyph-name="cog" unicode="&#xe802;" d="M571 490q0 59-41 101t-101 42-101-42-42-101 42-101 101-42 101 42 41 101z m286 61v-124q0-7-4-13t-11-7l-104-16q-10-30-21-51 19-27 59-77 6-6 6-13t-5-13q-15-21-55-61t-53-39q-7 0-14 5l-77 60q-25-13-51-21-9-76-16-104-4-16-20-16h-124q-8 0-14 5t-6 12l-16 103q-27 9-50 21l-79-60q-6-5-14-5-8 0-14 6-70 64-92 94-4 5-4 13 0 6 5 12 8 12 28 37t30 40q-15 28-23 55l-102 15q-7 1-11 7t-5 13v124q0 7 5 13t10 7l104 16q8 25 22 51-23 32-60 77-6 7-6 14 0 5 5 12 15 20 55 60t53 40q7 0 15-5l77-60q24 13 50 21 9 76 17 104 3 16 20 16h124q7 0 13-5t7-12l15-103q28-9 51-20l79 59q5 5 13 5 7 0 14-5 72-67 92-95 4-5 4-12 0-7-4-13-9-12-29-37t-30-40q15-28 23-54l102-16q7-1 12-7t4-13z" horiz-adv-x="857.1" />

<glyph glyph-name="ok" unicode="&#xe803;" d="M933 674q0-22-16-38l-404-404-76-76q-16-15-38-15t-38 15l-76 76-202 202q-15 16-15 38t15 38l76 76q16 16 38 16t38-16l164-165 366 367q16 16 38 16t38-16l76-76q16-15 16-38z" horiz-adv-x="1000" />

<glyph glyph-name="cancel" unicode="&#xe804;" d="M724 252q0-22-15-38l-76-76q-16-15-38-15t-38 15l-164 165-164-165q-16-15-38-15t-38 15l-76 76q-16 16-16 38t16 38l164 164-164 164q-16 16-16 38t16 38l76 76q16 16 38 16t38-16l164-164 164 164q16 16 38 16t38-16l76-76q15-15 15-38t-15-38l-164-164 164-164q15-15 15-38z" horiz-adv-x="785.7" />

<glyph glyph-name="cancel-1" unicode="&#xe805;" d="M0 211l279 279-279 279 221 221 279-279 279 279 221-221-279-279 279-279-221-221-279 279-279-279z" horiz-adv-x="1000" />

<glyph glyph-name="cancel-2" unicode="&#xe806;" d="M654 489l346-346-154-154-346 346-346-346-154 154 346 346-346 346 154 154 346-346 346 346 154-154z" horiz-adv-x="1000" />

<glyph glyph-name="ok-1" unicode="&#xe807;" d="M0 400l162 162 166-164 508 510 164-164-510-510-162-162-162 164z" horiz-adv-x="1000" />

<glyph glyph-name="ok-2" unicode="&#xe808;" d="M1179 918q-250-222-600-750l-115-179q-144 180-464 500l107 107 286-250q150 150 279 272t206 187 131 111 77 59l21 14q4 0 11-2t26-19 35-50z" horiz-adv-x="1179" />

<glyph glyph-name="cog-1" unicode="&#xe809;" d="M1000 561v-142l-185-26q-10-27-21-50l120-157-102-100-159 118q-20-10-51-21l-30-194h-143l-27 197q-21 7-43 18l-161-119-101 100 121 160q-11 21-19 46l-199 28v142l199 28q7 21 19 45l-120 159 101 100 160-119q15 8 47 20l28 195h143l28-195q22-7 48-19l158 117 102-100-119-156q13-27 20-48z m-348-72q0 60-43 102t-103 42-102-42-43-102 43-102 102-42 103 42 43 102z" horiz-adv-x="1000" />

<glyph glyph-name="forward" unicode="&#xe80a;" d="M0 671h684v319l501-501-501-499v316h-684v365z" horiz-adv-x="1185" />

<glyph glyph-name="link" unicode="&#xe80b;" d="M1000 723q0-112-78-188l-175-176q-78-78-189-78-97 0-171 63l115 115q26-17 56-17 44 0 75 31l175 176q31 29 31 74 0 44-30 75t-75 30q-25 0-49-12t-33-34h-238l132 129q80 78 188 78 110 0 188-78t78-188z m-387-89l-115-115q-26 17-56 17-44 0-75-31l-175-176q-31-29-31-74 0-44 31-74t74-31q25 0 50 12t32 34h238l-132-129q-80-78-188-78-110 0-188 78t-78 188q0 112 78 188l175 176q78 78 189 78 97 0 171-63z" horiz-adv-x="1000" />

<glyph glyph-name="pencil-1" unicode="&#xe80c;" d="M203 133l50 51-131 131-51-51v-60h72v-71h60z m291 518q0 12-12 12-5 0-9-4l-303-302q-4-4-4-10 0-12 13-12 5 0 9 4l303 302q3 4 3 10z m-30 107l232-232-464-465h-232v233z m381-54q0-29-20-50l-93-93-232 233 93 92q20 21 50 21 29 0 51-21l131-131q20-22 20-51z" horiz-adv-x="857.1" />

<glyph glyph-name="edit" unicode="&#xe80d;" d="M496 329l64 65-85 85-64-65v-31h53v-54h32z m245 402q-9 9-18 0l-196-196q-9-9 0-18t18 0l196 196q9 9 0 18z m45-331v-106q0-67-47-114t-114-47h-464q-67 0-114 47t-47 114v464q0 66 47 113t114 48h464q35 0 65-14 9-4 10-13 2-10-5-16l-27-28q-8-8-18-4-13 3-25 3h-464q-37 0-63-26t-27-63v-464q0-37 27-63t63-27h464q37 0 63 27t26 63v70q0 7 5 12l36 36q8 8 20 4t11-16z m-54 411l161-160-375-375h-161v160z m248-73l-51-52-161 161 51 52q16 15 38 15t38-15l85-85q16-16 16-38t-16-38z" horiz-adv-x="1000" />

<glyph glyph-name="right-big" unicode="&#xe80e;" d="M821 454q0-30-20-50l-363-364q-22-20-51-20-29 0-50 20l-42 42q-22 21-22 51t22 51l163 163h-393q-29 0-47 21t-18 51v71q0 30 18 51t47 20h393l-163 165q-22 20-22 50t22 50l42 42q21 21 50 21 29 0 51-21l363-363q20-20 20-51z" horiz-adv-x="857.1" />

<glyph glyph-name="left-big" unicode="&#xe80f;" d="M857 490v-71q0-30-18-51t-47-21h-393l164-164q21-20 21-50t-21-50l-42-43q-21-20-51-20-29 0-50 20l-364 364q-20 21-20 50 0 29 20 51l364 363q21 21 50 21 29 0 51-21l42-41q21-22 21-51t-21-51l-164-164h393q29 0 47-20t18-51z" horiz-adv-x="857.1" />

<glyph glyph-name="link-1" unicode="&#xe810;" d="M813 311q0 23-16 38l-116 116q-16 16-38 16-24 0-40-18 1-1 10-10t12-12 9-11 7-14 2-15q0-23-16-38t-38-16q-8 0-15 2t-14 7-11 9-12 12-10 10q-19-17-19-40 0-23 16-38l115-116q15-15 38-15 22 0 38 15l82 81q16 16 16 37z m-393 394q0 22-15 38l-115 115q-16 16-38 16-22 0-38-15l-82-82q-16-15-16-37 0-22 16-38l116-116q15-15 38-15 23 0 40 17-2 2-11 11t-12 12-8 10-7 14-2 16q0 22 15 38t38 15q9 0 16-2t14-7 11-8 12-12 10-11q18 17 18 41z m500-394q0-66-48-113l-82-81q-46-47-113-47-68 0-114 48l-115 115q-46 47-46 114 0 68 49 116l-49 49q-48-49-116-49-67 0-114 47l-116 116q-47 47-47 114t47 113l82 82q47 46 114 46 67 0 114-47l115-116q46-46 46-113 0-69-49-117l49-49q48 49 116 49 67 0 114-47l116-116q47-47 47-114z" horiz-adv-x="928.6" />

<glyph glyph-name="check" unicode="&#xe811;" d="M786 471v-177q0-67-47-114t-114-47h-464q-67 0-114 47t-47 114v464q0 66 47 113t114 48h464q35 0 65-14 9-4 10-13 2-10-5-16l-27-28q-6-5-13-5-1 0-5 1-13 3-25 3h-464q-37 0-63-26t-27-63v-464q0-37 27-63t63-27h464q37 0 63 27t26 63v141q0 8 5 13l36 35q6 6 13 6 3 0 7-2 11-4 11-16z m129 273l-455-454q-13-14-31-14t-32 14l-240 240q-14 13-14 31t14 32l61 62q14 13 32 13t32-13l147-147 361 361q13 13 31 13t32-13l62-61q13-14 13-32t-13-32z" horiz-adv-x="928.6" />

<glyph glyph-name="trash-empty" unicode="&#xe812;" d="M286 579v-321q0-8-5-13t-13-5h-36q-8 0-13 5t-5 13v321q0 8 5 13t13 5h36q8 0 13-5t5-13z m143 0v-321q0-8-5-13t-13-5h-36q-8 0-13 5t-5 13v321q0 8 5 13t13 5h36q8 0 13-5t5-13z m142 0v-321q0-8-5-13t-12-5h-36q-8 0-13 5t-5 13v321q0 8 5 13t13 5h36q7 0 12-5t5-13z m72-404v529h-500v-529q0-12 4-22t8-15 6-5h464q2 0 6 5t8 15 4 22z m-375 601h250l-27 65q-4 5-9 6h-177q-6-1-10-6z m518-18v-36q0-8-5-13t-13-5h-54v-529q0-46-26-80t-63-34h-464q-37 0-63 33t-27 79v531h-53q-8 0-13 5t-5 13v36q0 8 5 13t13 5h172l39 93q9 21 31 35t44 15h178q23 0 44-15t30-35l39-93h173q8 0 13-5t5-13z" horiz-adv-x="785.7" />

<glyph glyph-name="forward-1" unicode="&#xe813;" d="M1000 633q0-15-11-25l-285-286q-11-11-25-11t-25 11-11 25v143h-125q-55 0-98-3t-86-12-74-24-59-39-45-56-27-77-10-101q0-31 3-69 0-3 2-13t1-15q0-8-5-14t-13-6q-9 0-15 10-4 5-8 12t-7 17-6 13q-71 159-71 252 0 111 30 186 90 225 488 225h125v143q0 14 11 25t25 10 25-10l285-286q11-11 11-25z" horiz-adv-x="1000" />

<glyph glyph-name="login" unicode="&#xe814;" d="M661 490q0-14-11-25l-303-304q-11-10-26-10t-25 10-10 25v161h-250q-15 0-25 11t-11 25v214q0 15 11 25t25 11h250v161q0 14 10 25t25 10 26-10l303-304q11-10 11-25z m196 196v-392q0-67-47-114t-114-47h-178q-7 0-13 5t-5 13q0 2-1 11t0 15 2 13 5 11 12 3h178q37 0 64 27t26 63v392q0 37-26 64t-64 26h-174t-6 0-6 2-5 3-4 5-1 8q0 2-1 11t0 15 2 13 5 11 12 3h178q67 0 114-47t47-114z" horiz-adv-x="857.1" />

<glyph glyph-name="plus" unicode="&#xe815;" d="M786 579v-107q0-22-16-38t-38-15h-232v-233q0-22-16-37t-38-16h-107q-22 0-38 16t-15 37v233h-232q-23 0-38 15t-16 38v107q0 23 16 38t38 16h232v232q0 22 15 38t38 16h107q23 0 38-16t16-38v-232h232q23 0 38-16t16-38z" horiz-adv-x="785.7" />

<glyph glyph-name="plus-1" unicode="&#xe816;" d="M0 349l0 282 359 0 0 359 282 0 0-359 359 0 0-282-359 0 0-359-282 0 0 359-359 0z" horiz-adv-x="1000" />

<glyph glyph-name="minus" unicode="&#xe817;" d="M786 579v-107q0-22-16-38t-38-15h-678q-23 0-38 15t-16 38v107q0 23 16 38t38 16h678q23 0 38-16t16-38z" horiz-adv-x="785.7" />

<glyph glyph-name="minus-1" unicode="&#xe818;" d="M0 349l0 282 1000 0 0-282-1000 0z" horiz-adv-x="1000" />

<glyph glyph-name="arrows-cw" unicode="&#xe819;" d="M843 401q0-3 0-4-36-150-150-243t-267-93q-81 0-157 31t-136 88l-72-72q-11-11-25-11t-25 11-11 25v250q0 14 11 25t25 11h250q14 0 25-11t10-25-10-25l-77-77q40-36 90-57t105-20q74 0 139 37t104 99q6 10 30 66 4 13 16 13h107q8 0 13-6t5-12z m14 446v-250q0-14-10-25t-26-11h-250q-14 0-25 11t-10 25 10 25l77 77q-82 77-194 77-75 0-140-37t-104-99q-6-10-29-66-5-13-17-13h-111q-7 0-13 6t-5 12v4q36 150 151 243t268 93q81 0 158-31t137-88l72 72q11 11 25 11t26-11 10-25z" horiz-adv-x="857.1" />

<glyph glyph-name="pi-outline" unicode="&#xe81a;" d="M781 816q64 0 110-47t47-110q0-65-47-111-47-49-110-76l0-216q0-65-45-111t-111-46-111 46-45 111q0-65-46-111t-110-46-111 46-46 111l0 247q-63 0-110 46t-46 110 46 110q112 112 267 112t266-112q19-18 46-18t46 18q47 47 110 47z m37-194q15 15 15 37t-15 37q-17 16-37 16t-36-16q-49-49-120-49t-120 49q-80 80-192 80t-193-80q-15-15-15-37t15-37 36-15 37 15q30 30 67 41l0-407q0-22 16-37t37-16 36 16 16 37l0 407q38-11 68-41 57-58 140-74l0-292q0-22 15-37t37-16 37 16 16 37l0 292q82 16 140 74z" horiz-adv-x="938" />

<glyph glyph-name="pi" unicode="&#xe81b;" d="M714 697q15-15 15-37t-15-37q-58-58-141-74l0-292q0-22-15-37t-37-16-37 16-15 37l0 292q-84 16-141 74-30 30-68 41l0-407q0-22-15-37t-36-16-37 16-16 37l0 407q-37-11-67-41-15-15-37-15t-37 15-15 37 15 37q80 80 193 80t193-80q50-50 120-50t119 50q15 15 37 15t37-15z" horiz-adv-x="729" />

<glyph glyph-name="right-hand" unicode="&#xe81c;" d="M143 240q0 15-11 25t-25 11-25-11-11-25 11-25 25-11 25 11 11 25z m786 321q0 29-22 50t-50 22h-321q0 11 8 27t19 31 18 38 8 47q0 37-24 54t-65 17q-13 0-50-77-14-25-21-37-22-35-62-81-40-45-57-59-38-32-78-32h-18v-357h18q40 0 93-18t108-35 101-18q105 0 105 93 0 15-3 31 17 9 27 30t9 41-10 38q30 28 30 67 0 14-6 31t-14 26h185q29 0 50 21t22 50z m71 1q0-59-42-101t-101-42h-94q-2-35-21-67 2-12 2-24 0-56-34-99 1-78-47-123t-127-45q-74 0-179 39-92 33-125 33h-161q-29 0-50 21t-21 50v357q0 30 21 51t50 21h161q6 0 12 2t13 8 13 10 13 13 12 12 10 12 8 9q36 42 56 72 7 12 18 35t21 40 23 35 30 28 39 10q70 0 115-38t46-105q0-38-13-72h209q58 0 101-42t42-100z" horiz-adv-x="1000" />

<glyph glyph-name="left-hand" unicode="&#xe81d;" d="M768 204h18v357h-18q-20 0-38 7t-35 21-28 25-27 31q-4 5-7 7-40 46-62 81-8 13-21 38-1 2-6 13t-10 20-12 20-12 17-10 6q-40 0-64-17t-25-54q0-24 8-47t19-38 18-31 8-27h-321q-28 0-50-22t-22-50q0-29 22-50t50-21h185q-9-9-14-26t-6-31q0-39 30-67-10-18-10-38t9-41 27-30q-2-13-2-31 0-47 27-70t75-23q47 0 102 18t109 35 93 18z m161 36q0 15-11 25t-25 11-25-11-11-25 11-25 25-11 25 11 11 25z m71 321v-357q0-29-21-50t-50-21h-161q-33 0-125-33-106-39-176-39-80 0-129 44t-48 121l0 3q-34 42-34 99 0 12 2 24-19 32-21 67h-94q-59 0-101 42t-42 101q0 58 42 100t101 42h209q-13 34-13 72 0 68 46 105t115 38q21 0 39-10t31-28 22-35 21-40 18-35q20-30 56-72 1-1 8-9t10-12 12-12 13-13 13-10 13-8 12-2h161q29 0 50-21t21-51z" horiz-adv-x="1000" />

<glyph glyph-name="up-hand" unicode="&#xe81e;" d="M714 97q0 15-10 25t-25 11-25-11-11-25 11-25 25-11 25 11 10 25z m72 427q0 105-93 105-15 0-32-3-9 17-29 27t-41 9-38-10q-28 30-67 30-14 0-31-6t-26-14v185q0 29-22 50t-50 22q-28 0-50-22t-21-50v-321q-11 0-27 8t-31 19-38 18-47 8q-37 0-55-24t-17-65q0-13 78-50 25-14 36-21 36-22 81-62 45-40 59-57 32-38 32-78v-18h357v18q0 40 18 93t36 108 18 101z m71 2q0-74-38-179-33-92-33-125v-161q0-29-21-50t-51-21h-357q-29 0-50 21t-21 50v161q0 6-3 12t-8 13-10 13-12 13-12 12-12 10-10 8q-41 36-72 56-11 7-34 18t-40 21-36 23-27 30-10 39q0 70 37 115t106 46q38 0 71-13v209q0 58 43 101t100 42q58 0 101-42t42-101v-94q35-2 66-21 12 2 24 2 57 0 100-34 77 1 122-47t45-127z" horiz-adv-x="857.1" />

<glyph glyph-name="down-hand" unicode="&#xe81f;" d="M786 454q0 47-18 102t-36 109-18 93v18h-357v-18q0-20-7-38t-20-35-26-28-30-27q-5-4-8-7-45-40-81-62-12-8-38-21-1-1-12-6t-20-10-20-12-17-12-7-10q0-40 17-64t55-25q24 0 47 8t38 19 31 18 27 8v-321q0-28 21-50t50-22q29 0 50 22t22 50v185q25-20 57-20 39 0 67 30 17-10 38-10t41 9 29 27q14-2 32-2 47 0 70 27t23 75z m-72 429q0 14-10 25t-25 11-25-11-11-25 11-25 25-11 25 11 10 25z m143-426q0-80-43-129t-121-48l-3 0q-43-34-100-34-12 0-24 2-30-17-66-21v-94q0-59-42-101t-101-42q-58 0-100 42t-43 101v209q-30-13-71-13-68 0-105 46t-38 115q0 21 10 39t27 31 36 22 40 21 34 18q31 20 72 56 2 1 10 8t12 10 12 12 12 13 10 13 8 13 3 12v161q0 29 21 50t50 21h357q30 0 51-21t21-50v-161q0-33 33-125 38-106 38-176z" horiz-adv-x="857.1" />

<glyph glyph-name="clock" unicode="&#xe820;" d="M500 686v-250q0-7-5-12t-13-5h-178q-8 0-13 5t-5 12v36q0 8 5 13t13 5h125v196q0 8 5 13t12 5h36q8 0 13-5t5-13z m232-196q0 83-41 152t-110 111-152 41-153-41-110-111-41-152 41-152 110-111 153-41 152 41 110 111 41 152z m125 0q0-117-57-215t-156-156-215-58-216 58-155 156-58 215 58 215 155 156 216 58 215-58 156-156 57-215z" horiz-adv-x="857.1" />

<glyph glyph-name="down-dir" unicode="&#xe821;" d="M571 597q0-14-10-25l-250-250q-11-11-25-11t-25 11l-250 250q-11 11-11 25t11 25 25 11h500q14 0 25-11t10-25z" horiz-adv-x="571.4" />

<glyph glyph-name="left-open" unicode="&#xe822;" d="M654 822l-297-296 297-297q10-10 10-25t-10-25l-93-92q-11-11-25-11t-25 11l-414 414q-11 10-11 25t11 25l414 414q10 11 25 11t25-11l93-93q10-10 10-25t-10-25z" horiz-adv-x="714.3" />

<glyph glyph-name="right-open" unicode="&#xe823;" d="M618 501l-414-414q-11-11-25-11t-25 11l-93 92q-11 11-11 25t11 25l296 297-296 296q-11 11-11 25t11 25l93 93q10 11 25 11t25-11l414-414q10-11 10-25t-10-25z" horiz-adv-x="714.3" />

<glyph glyph-name="up-dir" unicode="&#xe824;" d="M571 311q0-14-10-25t-25-10h-500q-15 0-25 10t-11 25 11 26l250 250q10 10 25 10t25-10l250-250q10-11 10-26z" horiz-adv-x="571.4" />

<glyph glyph-name="left-dir" unicode="&#xe825;" d="M357 740v-500q0-14-10-25t-26-11-25 11l-250 250q-10 11-10 25t10 25l250 250q11 11 25 11t26-11 10-25z" horiz-adv-x="357.1" />

<glyph glyph-name="right-dir" unicode="&#xe826;" d="M321 490q0-14-10-25l-250-250q-11-11-25-11t-25 11-11 25v500q0 15 11 25t25 11 25-11l250-250q10-10 10-25z" horiz-adv-x="357.1" />

<glyph glyph-name="check-empty" unicode="&#xf096;" d="M625 847h-464q-37 0-63-26t-27-63v-464q0-37 27-63t63-27h464q37 0 63 27t26 63v464q0 37-26 63t-63 26z m161-89v-464q0-67-47-114t-114-47h-464q-67 0-114 47t-47 114v464q0 66 47 113t114 48h464q66 0 114-48t47-113z" horiz-adv-x="785.7" />

<glyph glyph-name="angle-double-left" unicode="&#xf100;" d="M350 222q0-7-6-13l-28-28q-5-5-12-5t-13 5l-260 261q-6 5-6 12t6 13l260 260q5 6 13 6t12-6l28-28q6-5 6-13t-6-12l-219-220 219-219q6-6 6-13z m214 0q0-7-5-13l-28-28q-6-5-13-5t-13 5l-260 261q-6 5-6 12t6 13l260 260q6 6 13 6t13-6l28-28q5-5 5-13t-5-12l-220-220 220-219q5-6 5-13z" horiz-adv-x="571.4" />

<glyph glyph-name="angle-double-right" unicode="&#xf101;" d="M332 454q0-7-5-12l-261-261q-5-5-12-5t-13 5l-28 28q-6 6-6 13t6 13l219 219-219 220q-6 5-6 12t6 13l28 28q5 6 13 6t12-6l261-260q5-5 5-13z m214 0q0-7-5-12l-260-261q-6-5-13-5t-13 5l-28 28q-5 6-5 13t5 13l219 219-219 220q-5 5-5 12t5 13l28 28q6 6 13 6t13-6l260-260q5-5 5-13z" horiz-adv-x="571.4" />

<glyph glyph-name="angle-left" unicode="&#xf104;" d="M350 686q0-7-6-12l-219-220 219-219q6-6 6-13t-6-13l-28-28q-5-5-12-5t-13 5l-260 261q-6 5-6 12t6 13l260 260q5 6 13 6t12-6l28-28q6-5 6-13z" horiz-adv-x="357.1" />

<glyph glyph-name="angle-right" unicode="&#xf105;" d="M332 454q0-7-5-12l-261-261q-5-5-12-5t-13 5l-28 28q-6 6-6 13t6 13l219 219-219 220q-6 5-6 12t6 13l28 28q5 6 13 6t12-6l261-260q5-5 5-13z" horiz-adv-x="357.1" />

<glyph glyph-name="keyboard" unicode="&#xf11c;" d="M214 338v-53q0-9-9-9h-53q-9 0-9 9v53q0 9 9 9h53q9 0 9-9z m72 143v-53q0-9-9-9h-125q-9 0-9 9v53q0 9 9 9h125q9 0 9-9z m-72 143v-54q0-9-9-9h-53q-9 0-9 9v54q0 9 9 9h53q9 0 9-9z m572-286v-53q0-9-9-9h-482q-9 0-9 9v53q0 9 9 9h482q9 0 9-9z m-357 143v-53q0-9-9-9h-54q-9 0-9 9v53q0 9 9 9h54q9 0 9-9z m-72 143v-54q0-9-9-9h-53q-9 0-9 9v54q0 9 9 9h53q9 0 9-9z m214-143v-53q0-9-8-9h-54q-9 0-9 9v53q0 9 9 9h54q8 0 8-9z m-71 143v-54q0-9-9-9h-53q-9 0-9 9v54q0 9 9 9h53q9 0 9-9z m214-143v-53q0-9-9-9h-53q-9 0-9 9v53q0 9 9 9h53q9 0 9-9z m215-143v-53q0-9-9-9h-54q-9 0-9 9v53q0 9 9 9h54q9 0 9-9z m-286 286v-54q0-9-9-9h-54q-9 0-9 9v54q0 9 9 9h54q9 0 9-9z m143 0v-54q0-9-9-9h-54q-9 0-9 9v54q0 9 9 9h54q9 0 9-9z m143 0v-196q0-9-9-9h-125q-9 0-9 9v53q0 9 9 9h62v134q0 9 9 9h54q9 0 9-9z m71-420v500h-929v-500h929z m71 500v-500q0-29-20-50t-51-21h-929q-29 0-50 21t-21 50v500q0 30 21 51t50 21h929q30 0 51-21t20-51z" horiz-adv-x="1071.4" />

<glyph glyph-name="unlink" unicode="&#xf127;" d="M245 281l-143-143q-6-5-13-5t-12 5q-6 6-6 13t6 13l142 142q6 5 13 5t13-5q5-5 5-12t-5-13z m94-23v-179q0-7-5-12t-13-6-12 6-5 12v179q0 8 5 13t12 5 13-5 5-13z m-125 125q0-8-5-13t-13-5h-178q-8 0-13 5t-5 13 5 13 13 5h178q8 0 13-5t5-13z m706-72q0-66-48-113l-82-81q-46-47-113-47-68 0-114 48l-186 187q-12 12-24 31l134 10 152-153q15-15 38-15t38 15l82 81q16 16 16 37 0 23-16 38l-153 154 10 133q20-11 31-23l188-188q47-48 47-114z m-345 404l-133-10-152 153q-16 16-38 16-22 0-38-15l-82-82q-16-15-16-37 0-22 16-38l153-153-10-134q-20 12-32 24l-187 187q-47 48-47 114 0 67 47 113l82 82q47 46 114 46 67 0 114-47l186-187q12-12 23-32z m354-46q0-8-5-13t-13-5h-179q-8 0-13 5t-5 13 5 12 13 5h179q8 0 13-5t5-12z m-304 303v-178q0-8-5-13t-13-5-13 5-5 13v178q0 8 5 13t13 5 13-5 5-13z m227-84l-143-143q-6-5-13-5t-12 5q-5 6-5 13t5 13l143 143q5 5 12 5t13-5q5-6 5-13t-5-13z" horiz-adv-x="928.6" />

<glyph glyph-name="trash" unicode="&#xf1f8;" d="M286 222v393q0 8-5 13t-13 5h-36q-8 0-13-5t-5-13v-393q0-8 5-13t13-5h36q8 0 13 5t5 13z m143 0v393q0 8-5 13t-13 5h-36q-8 0-13-5t-5-13v-393q0-8 5-13t13-5h36q8 0 13 5t5 13z m142 0v393q0 8-5 13t-12 5h-36q-8 0-13-5t-5-13v-393q0-8 5-13t13-5h36q7 0 12 5t5 13z m-303 554h250l-27 65q-4 5-9 6h-177q-6-1-10-6z m518-18v-36q0-8-5-13t-13-5h-54v-529q0-46-26-80t-63-34h-464q-37 0-63 33t-27 79v531h-53q-8 0-13 5t-5 13v36q0 8 5 13t13 5h172l39 93q9 21 31 35t44 15h178q23 0 44-15t30-35l39-93h173q8 0 13-5t5-13z" horiz-adv-x="785.7" />

<glyph glyph-name="toggle-off" unicode="&#xf204;" d="M643 490q0 58-23 111t-61 91-91 61-111 23-111-23-91-61-61-91-23-111 23-111 61-91 91-61 111-23 111 23 91 61 61 91 23 111z m428 0q0 58-22 111t-61 91-91 61-111 23h-216q67-50 106-125t38-161-38-161-106-125h216q58 0 111 23t91 61 61 91 22 111z m72 0q0-72-29-139t-76-113-114-77-138-28h-429q-72 0-138 28t-114 77-76 113-29 139 29 139 76 114 114 76 138 28h429q72 0 138-28t114-76 76-114 29-139z" horiz-adv-x="1142.9" />

<glyph glyph-name="toggle-on" unicode="&#xf205;" d="M0 490q0 73 29 139t76 114 114 76 138 28h429q72 0 138-28t114-76 76-114 29-139-29-139-76-113-114-77-138-28h-429q-72 0-138 28t-114 77-76 113-29 139z m786-286q58 0 111 23t91 61 61 91 22 111-22 111-61 91-91 61-111 23-111-23-91-61-61-91-23-111 23-111 61-91 91-61 111-23z" horiz-adv-x="1142.9" />

<glyph glyph-name="hand-pointer-o" unicode="&#xf25a;" d="M357 919q-29 0-50-21t-21-51v-500l-84 113q-23 30-60 30-29 0-50-21t-21-50q0-24 15-43l214-286q21-29 57-29h401q12 0 22 8t12 19l52 206q13 53 13 108v121q0 23-15 40t-38 16-38-15-16-38h-18v34q0 27-18 45t-44 19q-26 0-44-18t-19-45v-35h-18v50q0 31-20 53t-51 22q-30 0-51-21t-21-51v-53h-17v318q0 31-21 53t-51 22z m0 71q60 0 101-43t42-103v-123q12 1 18 1 55 0 96-38 27 11 56 11 63 0 102-48 15 4 32 4 52 0 88-38t37-90v-121q0-65-16-126l-51-205q-9-36-38-58t-66-23h-401q-33 0-64 15t-50 42l-214 286q-29 38-29 86 0 58 42 100t100 42q39 0 72-19v305q0 59 42 101t101 42z m72-786v215h-18v-215h18z m142 0v215h-17v-215h17z m143 0v215h-18v-215h18z" horiz-adv-x="1000" />
</font>
</defs>
</svg>
